<svg width="18" height="18" viewBox="0 0 18 18" fill="none" xmlns="http://www.w3.org/2000/svg">
<path fill-rule="evenodd" clip-rule="evenodd" d="M0.600098 1.80001C0.600098 1.13726 1.13736 0.600006 1.8001 0.600006H6.6001C7.26284 0.600006 7.8001 1.13726 7.8001 1.80001C7.8001 2.46275 7.26284 3.00001 6.6001 3.00001H4.69715L7.44863 5.75148C7.91725 6.22011 7.91725 6.97991 7.44863 7.44853C6.98 7.91716 6.2202 7.91716 5.75157 7.44853L3.0001 4.69706V6.60001C3.0001 7.26275 2.46284 7.80001 1.8001 7.80001C1.13736 7.80001 0.600098 7.26275 0.600098 6.60001V1.80001ZM11.4001 3.00001C10.7374 3.00001 10.2001 2.46275 10.2001 1.80001C10.2001 1.13726 10.7374 0.600006 11.4001 0.600006H16.2001C16.8628 0.600006 17.4001 1.13726 17.4001 1.80001V6.60001C17.4001 7.26275 16.8628 7.80001 16.2001 7.80001C15.5374 7.80001 15.0001 7.26275 15.0001 6.60001V4.69706L12.2486 7.44853C11.78 7.91716 11.0202 7.91716 10.5516 7.44853C10.0829 6.97991 10.0829 6.22011 10.5516 5.75148L13.303 3.00001H11.4001ZM0.600098 11.4C0.600098 10.7373 1.13736 10.2 1.8001 10.2C2.46284 10.2 3.0001 10.7373 3.0001 11.4V13.3029L5.75157 10.5515C6.2202 10.0828 6.98 10.0828 7.44863 10.5515C7.91725 11.0201 7.91725 11.7799 7.44863 12.2485L4.69715 15H6.6001C7.26284 15 7.8001 15.5373 7.8001 16.2C7.8001 16.8627 7.26284 17.4 6.6001 17.4H1.8001C1.13736 17.4 0.600098 16.8627 0.600098 16.2V11.4ZM16.2001 10.2C16.8628 10.2 17.4001 10.7373 17.4001 11.4V16.2C17.4001 16.8627 16.8628 17.4 16.2001 17.4H11.4001C10.7374 17.4 10.2001 16.8627 10.2001 16.2C10.2001 15.5373 10.7374 15 11.4001 15H13.303L10.5516 12.2485C10.0829 11.7799 10.0829 11.0201 10.5516 10.5515C11.0202 10.0828 11.78 10.0828 12.2486 10.5515L15.0001 13.3029V11.4C15.0001 10.7373 15.5374 10.2 16.2001 10.2Z" fill="#232323"/>
</svg>
