<svg width="20" height="20" viewBox="0 0 20 20" fill="none" xmlns="http://www.w3.org/2000/svg">
<path fill-rule="evenodd" clip-rule="evenodd" d="M19.5999 9.99999C19.5999 15.3019 15.3018 19.6 9.9999 19.6C4.69797 19.6 0.399902 15.3019 0.399902 9.99999C0.399902 4.69806 4.69797 0.399994 9.9999 0.399994C15.3018 0.399994 19.5999 4.69806 19.5999 9.99999ZM11.1999 14.8C11.1999 15.4627 10.6626 16 9.9999 16C9.33716 16 8.7999 15.4627 8.7999 14.8C8.7999 14.1373 9.33716 13.6 9.9999 13.6C10.6626 13.6 11.1999 14.1373 11.1999 14.8ZM9.9999 3.99999C9.33716 3.99999 8.7999 4.53725 8.7999 5.19999V9.99999C8.7999 10.6627 9.33716 11.2 9.9999 11.2C10.6626 11.2 11.1999 10.6627 11.1999 9.99999V5.19999C11.1999 4.53725 10.6626 3.99999 9.9999 3.99999Z" fill="#232323"/>
</svg>
