<svg width="18" height="20" viewBox="0 0 18 20" fill="none" xmlns="http://www.w3.org/2000/svg">
<path d="M9.00013 0.399994C5.02368 0.399994 1.80013 3.62354 1.80013 7.59999V11.9029L0.951605 12.7515C0.608407 13.0947 0.50574 13.6108 0.691477 14.0592C0.877214 14.5076 1.31478 14.8 1.80013 14.8H16.2001C16.6855 14.8 17.1231 14.5076 17.3088 14.0592C17.4945 13.6108 17.3919 13.0947 17.0487 12.7515L16.2001 11.9029V7.59999C16.2001 3.62354 12.9766 0.399994 9.00013 0.399994Z" fill="#111827"/>
<path d="M9.0001 19.6C7.01187 19.6 5.4001 17.9882 5.4001 16H12.6001C12.6001 17.9882 10.9883 19.6 9.0001 19.6Z" fill="#111827"/>
</svg>
